# xmcd
#
# Track frame offsets: 
#        150
#        14092
#        31672
#        47390
#        68764
#        84377
#        97920
#        110145
#        121189
#        133159
#        146654
#        158555
#        181780
#        197031
#        217229
#        241151
#        255370
#        276864
#
# Disc length: 3974 seconds
#
# Revision: 1
# Processed by: cddbd v1.5.2PL0 Copyright (c) Steve Scherf et al.
# Submitted via: ExactAudioCopyFreeDBPlugin 1.0
#
DISCID=f40f8412
DTITLE=The Fabulous Thunderbirds - Girls Go Wild
DYEAR=1979
DGENRE=Blues
TTITLE0=Wait On Time
TTITLE1=Scratch My Back
TTITLE2=Rich Woman
TTITLE3=Full Time Lover
TTITLE4=Pocket Rocket
TTITLE5=She's Tuff
TTITLE6=Marked Deck
TTITLE7=Walkin' To My Baby
TTITLE8=Rock With Me
TTITLE9=C-Boy's Blues
TTITLE10=Let Me In
TTITLE11=Scratch My Back (Live)
TTITLE12=She's Tuff (Live)
TTITLE13=Full Time Lover (Live)
TTITLE14=Feelin' Good (Live)
TTITLE15=Wait On Time (Live)
TTITLE16=Pocket Rocket (Live)
TTITLE17=Wait On Time (Live)
EXTD=
EXTT0=
EXTT1=
EXTT2=
EXTT3=
EXTT4=
EXTT5=
EXTT6=
EXTT7=
EXTT8=
EXTT9=
EXTT10=
EXTT11=
EXTT12=
EXTT13=
EXTT14=
EXTT15=
EXTT16=
EXTT17=
PLAYORDER=
